<svg width="504" height="590" viewBox="0 0 504 590" fill="none" xmlns="http://www.w3.org/2000/svg">
<path d="M17.3351 159.896L26.8701 171.124" stroke="#04D361" stroke-width="3" stroke-miterlimit="10" stroke-linecap="round" stroke-linejoin="round"/>
<path d="M26.8701 159.896L17.3351 171.124" stroke="#04D361" stroke-width="3" stroke-miterlimit="10" stroke-linecap="round" stroke-linejoin="round"/>
<path d="M42.9246 523.394V539.271" stroke="#04D361" stroke-width="3" stroke-miterlimit="10" stroke-linecap="round" stroke-linejoin="round"/>
<path d="M49.6837 531.329H36.1844" stroke="#04D361" stroke-width="3" stroke-miterlimit="10" stroke-linecap="round" stroke-linejoin="round"/>
<path d="M343.127 11.4617C343.127 16.7793 339.464 21.1115 334.933 21.1115C330.418 21.1115 326.739 16.7979 326.739 11.4617C326.739 6.14409 330.402 1.81189 334.933 1.81189C339.464 1.83048 343.127 6.14409 343.127 11.4617Z" stroke="#04D361" stroke-width="3" stroke-miterlimit="10" stroke-linecap="round" stroke-linejoin="round"/>
<path d="M463.345 578.182C463.345 583.5 459.682 587.832 455.151 587.832C450.636 587.832 446.958 583.518 446.958 578.182C446.958 572.864 450.62 568.532 455.151 568.532C459.682 568.551 463.345 572.864 463.345 578.182Z" stroke="#04D361" stroke-width="3" stroke-miterlimit="10" stroke-linecap="round" stroke-linejoin="round"/>
<path d="M463.345 578.182C463.345 583.5 459.682 587.832 455.151 587.832C450.636 587.832 446.958 583.518 446.958 578.182C446.958 572.864 450.62 568.532 455.151 568.532C459.682 568.551 463.345 572.864 463.345 578.182Z" stroke="#04D361" stroke-width="3" stroke-miterlimit="10" stroke-linecap="round" stroke-linejoin="round"/>
<path d="M458.91 150.981C460.55 150.981 461.878 149.416 461.878 147.485C461.878 145.555 460.55 143.99 458.91 143.99C457.271 143.99 455.942 145.555 455.942 147.485C455.942 149.416 457.271 150.981 458.91 150.981Z" fill="#9871F5"/>
<path d="M479.622 150.981C481.261 150.981 482.59 149.416 482.59 147.485C482.59 145.555 481.261 143.99 479.622 143.99C477.984 143.99 476.655 145.555 476.655 147.485C476.655 149.416 477.984 150.981 479.622 150.981Z" fill="#9871F5"/>
<path d="M500.355 150.981C501.994 150.981 503.323 149.416 503.323 147.485C503.323 145.555 501.994 143.99 500.355 143.99C498.716 143.99 497.387 145.555 497.387 147.485C497.387 149.416 498.716 150.981 500.355 150.981Z" fill="#9871F5"/>
<path d="M458.91 175.39C460.549 175.39 461.878 173.825 461.878 171.894C461.878 169.965 460.549 168.4 458.91 168.4C457.271 168.4 455.942 169.965 455.942 171.894C455.942 173.825 457.271 175.39 458.91 175.39Z" fill="#9871F5"/>
<path d="M479.622 175.39C481.261 175.39 482.59 173.825 482.59 171.895C482.59 169.965 481.261 168.4 479.622 168.4C477.984 168.4 476.655 169.965 476.655 171.895C476.655 173.825 477.984 175.39 479.622 175.39Z" fill="#9871F5"/>
<path d="M500.355 175.39C501.994 175.39 503.323 173.825 503.323 171.895C503.323 169.965 501.994 168.4 500.355 168.4C498.716 168.4 497.387 169.965 497.387 171.895C497.387 173.825 498.716 175.39 500.355 175.39Z" fill="#9871F5"/>
<path d="M3.88479 23.345C5.52354 23.345 6.8523 21.7803 6.8523 19.8501C6.8523 17.9199 5.52354 16.3552 3.88479 16.3552C2.24604 16.3552 0.917297 17.9199 0.917297 19.8501C0.917297 21.7803 2.24604 23.345 3.88479 23.345Z" fill="#9871F5"/>
<path d="M24.5988 23.345C26.2376 23.345 27.5665 21.7803 27.5665 19.8501C27.5665 17.9199 26.2376 16.3552 24.5988 16.3552C22.96 16.3552 21.6312 17.9199 21.6312 19.8501C21.6312 21.7803 22.96 23.345 24.5988 23.345Z" fill="#9871F5"/>
<path d="M45.33 23.345C46.9688 23.345 48.2975 21.7803 48.2975 19.8501C48.2975 17.9199 46.9688 16.3552 45.33 16.3552C43.6904 16.3552 42.3616 17.9199 42.3616 19.8501C42.3616 21.7803 43.6904 23.345 45.33 23.345Z" fill="#9871F5"/>
<path d="M3.88391 47.7601C5.52358 47.7601 6.85235 46.1953 6.85235 44.2652C6.85235 42.335 5.52358 40.7703 3.88391 40.7703C2.24514 40.7703 0.916351 42.335 0.916351 44.2652C0.916351 46.1953 2.24514 47.7601 3.88391 47.7601Z" fill="#9871F5"/>
<path d="M24.5988 47.7601C26.2376 47.7601 27.5665 46.1953 27.5665 44.2652C27.5665 42.335 26.2376 40.7703 24.5988 40.7703C22.96 40.7703 21.6312 42.335 21.6312 44.2652C21.6312 46.1953 22.96 47.7601 24.5988 47.7601Z" fill="#9871F5"/>
<path d="M45.3312 47.7601C46.97 47.7601 48.2989 46.1953 48.2989 44.2652C48.2989 42.335 46.97 40.7703 45.3312 40.7703C43.6915 40.7703 42.3627 42.335 42.3627 44.2652C42.3627 46.1953 43.6915 47.7601 45.3312 47.7601Z" fill="#9871F5"/>
</svg>
